<?xml version="1.0" standalone="no"?>
<!DOCTYPE svg PUBLIC "-//W3C//DTD SVG 20010904//EN"
 "http://www.w3.org/TR/2001/REC-SVG-20010904/DTD/svg10.dtd">
<svg version="1.0" xmlns="http://www.w3.org/2000/svg"
 width="291.000000pt" height="291.000000pt" viewBox="0 0 291.000000 291.000000"
 preserveAspectRatio="xMidYMid meet">
<metadata>
Created by potrace 1.14, written by Peter Selinger 2001-2017
</metadata>
<g transform="translate(0.000000,291.000000) scale(0.100000,-0.100000)"
fill="#000000" stroke="none">
<path d="M1385 2900 c6 -10 -24 -70 -35 -70 -5 0 -7 -7 -4 -15 4 -8 -1 -17
-10 -21 -9 -3 -13 -10 -10 -15 3 -5 0 -9 -6 -9 -7 0 -10 -7 -7 -15 4 -8 1 -17
-5 -21 -7 -4 -8 -3 -4 4 4 7 4 12 1 12 -3 0 -11 -13 -16 -30 -6 -16 -15 -28
-19 -25 -4 3 -6 -5 -2 -17 3 -14 2 -19 -6 -14 -7 4 -12 1 -12 -8 0 -9 -4 -16
-9 -16 -6 0 -8 -9 -6 -20 2 -12 0 -18 -6 -14 -6 3 -13 -3 -16 -15 -3 -12 -10
-21 -17 -21 -6 0 -4 -5 4 -10 13 -8 13 -10 -1 -10 -9 0 -23 -8 -30 -17 -13
-16 -12 -17 4 -4 15 12 17 12 11 -3 -3 -9 -10 -16 -16 -16 -5 0 -6 -4 -3 -10
3 -5 -1 -10 -10 -10 -9 0 -14 -4 -11 -9 7 -11 -22 -71 -35 -71 -5 0 -8 -6 -7
-12 2 -7 -3 -12 -11 -10 -12 3 -12 0 -2 -12 9 -11 9 -16 0 -22 -8 -5 -9 -3 -4
6 6 9 4 11 -4 5 -7 -4 -11 -16 -8 -26 3 -10 0 -17 -7 -16 -6 1 -10 -4 -8 -10
1 -7 -2 -13 -8 -13 -5 0 -10 -7 -10 -16 0 -9 -5 -12 -12 -8 -9 5 -8 2 1 -9 12
-16 12 -17 -5 -11 -10 4 -16 4 -12 -1 10 -10 -19 -38 -32 -30 -5 3 -10 2 -10
-3 0 -4 -22 -6 -50 -2 -27 4 -50 3 -50 -2 0 -5 -9 -4 -20 2 -11 6 -20 7 -20 2
0 -5 -22 -6 -50 -2 -27 4 -50 4 -50 1 0 -3 -36 -4 -80 -1 -44 3 -80 2 -80 -1
0 -3 -22 -3 -50 1 -27 4 -50 3 -50 -2 0 -5 -9 -4 -20 2 -11 6 -20 7 -20 2 0
-5 -22 -6 -50 -2 -27 4 -50 4 -50 1 0 -8 -99 -5 -107 2 -3 3 -16 -1 -30 -10
-20 -13 -23 -23 -22 -58 2 -34 6 -42 18 -37 9 3 13 2 9 -2 -4 -5 2 -17 12 -28
10 -11 16 -26 14 -33 -3 -7 0 -16 5 -20 6 -3 8 -11 5 -17 -5 -8 -1 -9 10 -5
14 6 17 3 12 -8 -3 -9 1 -18 9 -21 8 -4 12 -10 9 -15 -7 -12 15 -41 26 -34 4
3 8 -7 8 -21 0 -26 19 -47 34 -38 4 3 8 1 8 -5 0 -5 -5 -13 -10 -16 -7 -4 -3
-14 10 -25 15 -13 17 -19 8 -23 -8 -4 -7 -6 4 -6 10 -1 17 -7 15 -13 -1 -7 4
-12 11 -10 8 1 11 -2 7 -8 -3 -5 0 -10 7 -10 9 0 9 -3 -2 -10 -10 -6 -11 -10
-3 -10 7 0 15 -11 19 -25 3 -13 11 -23 18 -22 6 1 10 -6 8 -15 -2 -11 3 -18
14 -18 14 0 15 -2 3 -17 -10 -11 -10 -14 -2 -9 12 7 18 -5 14 -27 -1 -5 3 -6
9 -2 6 3 10 -3 10 -15 0 -11 7 -23 15 -26 8 -4 12 -10 9 -15 -3 -5 0 -9 5 -9
6 0 11 -10 11 -22 0 -19 2 -20 10 -8 7 11 10 5 10 -23 0 -27 4 -36 13 -32 6 4
3 -1 -7 -9 -11 -9 -16 -16 -10 -16 5 0 0 -7 -10 -15 -10 -8 -19 -27 -20 -44
-1 -24 -4 -27 -18 -20 -13 7 -15 5 -11 -11 3 -12 0 -20 -6 -20 -7 0 -10 -4 -7
-9 3 -5 -1 -12 -10 -15 -8 -3 -13 -10 -9 -15 3 -6 -3 -18 -14 -28 -17 -17 -31
-47 -30 -66 0 -5 -9 -17 -20 -26 -11 -10 -18 -21 -14 -24 3 -4 -7 -19 -23 -33
-22 -20 -24 -25 -9 -20 19 6 19 5 2 -8 -9 -7 -17 -19 -17 -25 0 -7 -5 -9 -10
-6 -6 4 -10 3 -9 -2 4 -22 -2 -34 -13 -27 -10 6 -10 5 0 -8 10 -13 9 -18 -5
-29 -17 -13 -17 -13 -3 6 11 15 11 17 0 8 -7 -7 -15 -23 -17 -35 -2 -13 -13
-30 -24 -38 -16 -13 -17 -18 -7 -28 11 -11 10 -12 -4 -7 -13 5 -16 2 -13 -14
3 -14 -1 -18 -11 -14 -10 4 -12 0 -7 -13 5 -14 3 -16 -12 -11 -15 6 -16 5 -5
-8 11 -14 7 -19 -13 -16 -4 1 -7 -21 -6 -48 2 -28 6 -48 11 -45 5 3 6 11 2 17
-3 7 4 2 15 -11 11 -13 25 -21 31 -17 6 4 17 2 25 -5 10 -8 15 -8 21 1 5 8 3
10 -7 4 -11 -6 -11 -5 -2 5 9 10 15 10 28 -4 19 -19 32 -22 17 -3 -8 10 -6 13
8 13 10 0 17 -3 14 -7 -2 -4 5 -9 17 -12 17 -4 18 -3 8 9 -10 12 -8 14 10 11
12 -2 26 -8 32 -14 12 -12 42 -6 35 6 -3 4 5 8 17 8 17 2 19 0 7 -7 -13 -9
-13 -10 0 -10 9 0 21 5 28 12 9 9 16 8 29 -4 17 -15 48 -14 39 1 -3 4 1 8 9 8
8 0 12 -4 10 -8 -3 -3 4 -9 16 -12 17 -4 18 -3 8 9 -10 12 -8 14 10 11 12 -2
26 -8 32 -14 12 -12 42 -6 35 6 -3 4 5 8 17 8 17 2 19 0 7 -7 -13 -9 -13 -10
0 -10 9 0 21 5 28 12 9 9 16 8 29 -4 17 -15 48 -14 39 1 -3 4 1 8 9 8 8 0 12
-4 10 -8 -3 -3 4 -9 16 -12 17 -5 18 -3 8 9 -10 13 -8 14 16 10 16 -3 33 -11
38 -18 6 -9 7 -6 4 10 -5 19 -3 21 9 11 7 -6 12 -15 9 -18 -2 -4 2 -8 9 -8 8
0 12 6 10 12 -3 8 5 12 23 11 20 -1 28 -6 27 -18 -1 -15 2 -16 19 -7 17 10 19
9 14 -5 -4 -10 -3 -14 2 -11 5 3 12 1 16 -5 3 -5 1 -10 -6 -10 -8 0 -9 -3 0
-13 6 -8 7 -18 3 -23 -4 -4 1 -2 11 5 15 12 17 12 10 -4 -5 -15 -3 -17 10 -12
15 5 16 3 7 -13 -11 -20 2 -36 19 -26 5 4 7 -3 4 -14 -3 -11 0 -20 6 -20 6 0
11 -9 11 -19 0 -11 4 -21 9 -23 5 -1 11 -10 13 -18 2 -8 11 -22 20 -31 10 -9
15 -19 11 -23 -3 -3 -1 -6 5 -6 6 0 9 -7 5 -17 -4 -11 -3 -14 5 -9 7 4 12 1
12 -8 0 -9 4 -16 8 -16 4 0 8 -10 9 -21 1 -12 7 -27 14 -33 9 -8 10 -7 5 4 -4
8 0 6 8 -4 15 -18 21 -39 17 -59 -1 -5 3 -6 9 -2 9 6 14 -7 11 -27 0 -5 3 -8
9 -8 5 0 10 -7 10 -16 0 -8 4 -13 8 -10 4 2 9 -5 9 -16 1 -12 10 -28 19 -37
17 -15 17 -15 3 4 -13 19 -13 19 4 6 14 -11 15 -16 5 -29 -10 -13 -10 -14 0
-8 8 5 12 0 12 -14 0 -12 4 -18 10 -15 10 6 14 -7 11 -33 -1 -7 2 -12 6 -11
24 4 35 -2 29 -18 -6 -14 -3 -14 15 3 22 19 22 19 15 -3 -5 -14 -3 -23 3 -23
6 0 10 3 10 7 -4 23 3 35 16 29 10 -3 15 1 15 14 0 10 5 22 12 26 7 5 8 2 3
-7 -5 -8 -4 -11 1 -6 5 5 9 12 10 15 3 27 18 62 26 62 5 0 6 5 2 12 -5 7 -2 9
8 6 10 -4 15 0 15 10 0 35 3 42 18 42 9 0 15 9 15 25 0 14 5 25 11 25 5 0 8 3
6 8 -6 9 19 33 26 25 3 -3 3 5 0 18 -4 12 -2 20 3 16 5 -3 14 6 21 19 8 18 8
23 0 18 -7 -3 -1 3 12 14 15 12 21 24 16 32 -5 9 -4 11 3 6 8 -5 12 1 12 14 0
12 4 19 9 15 5 -3 12 -1 16 5 3 5 1 10 -5 10 -6 0 -8 5 -5 10 4 6 10 8 15 5 5
-3 7 3 5 15 -2 11 1 19 8 17 7 -1 11 4 9 11 -1 6 2 12 8 12 6 0 9 4 8 9 -2 5
6 17 17 26 11 9 14 14 8 10 -7 -3 -13 -1 -13 4 0 6 5 11 10 11 6 0 10 8 8 17
-2 10 3 18 12 18 8 1 14 6 12 13 -1 7 2 12 7 12 6 0 8 9 6 21 -4 17 -2 19 11
8 12 -10 13 -9 8 6 -6 14 -3 16 15 10 15 -4 23 -2 27 10 6 13 8 14 15 3 7 -11
9 -11 9 0 0 10 4 9 16 -3 15 -15 18 -15 37 2 11 10 18 13 14 7 -7 -12 21 -12
41 0 7 4 19 1 28 -8 20 -21 30 -21 14 0 -11 12 -11 15 1 12 7 -2 20 -9 27 -16
12 -11 18 -10 35 5 11 10 18 13 14 7 -7 -12 21 -12 41 0 7 4 19 1 28 -8 19
-19 31 -21 16 -3 -8 10 -6 13 8 13 10 0 17 -3 14 -7 -2 -4 5 -9 17 -12 17 -4
18 -3 8 9 -10 12 -8 14 10 11 12 -2 26 -8 32 -14 12 -12 42 -6 35 6 -3 4 5 8
17 8 17 2 19 0 7 -7 -13 -9 -13 -10 0 -10 9 0 21 5 28 12 9 9 16 8 29 -4 17
-15 48 -14 39 1 -3 4 1 8 9 8 8 0 12 -4 10 -8 -3 -3 4 -9 16 -12 17 -5 18 -3
8 9 -10 13 -8 14 17 10 16 -3 30 -10 32 -16 2 -5 8 -10 13 -10 4 0 6 6 3 13
-3 9 4 13 21 13 14 0 25 -3 25 -6 0 -4 6 -7 14 -7 9 0 12 6 8 16 -5 14 -4 14
13 1 11 -9 16 -10 11 -2 -4 7 -1 15 9 18 13 5 13 9 3 22 -10 12 -10 14 0 8 16
-9 16 6 0 23 -11 11 -10 13 2 7 8 -4 5 1 -7 12 -12 11 -19 22 -16 26 4 3 1 6
-5 6 -7 0 -12 7 -12 16 0 8 -4 13 -9 10 -5 -3 -12 1 -15 10 -4 10 -2 13 7 8 6
-4 1 5 -13 21 -14 16 -20 25 -13 21 6 -3 15 -2 18 4 4 6 3 10 -2 9 -23 -4 -35
2 -30 16 4 8 1 17 -5 21 -7 5 -8 2 -3 -6 5 -9 4 -11 -3 -6 -7 4 -12 14 -12 22
0 8 -6 14 -12 14 -9 0 -8 4 2 10 10 6 11 10 3 10 -7 0 -13 6 -13 14 0 8 -5 18
-12 22 -7 5 -8 3 -3 -6 6 -9 4 -11 -4 -6 -7 5 -10 11 -7 14 3 3 0 12 -7 20
-10 13 -9 14 3 8 8 -4 5 1 -8 11 -13 10 -24 29 -25 41 -1 13 -6 21 -14 18 -7
-3 -10 1 -6 10 3 7 0 14 -7 14 -6 0 -9 4 -5 9 3 6 -1 13 -8 18 -25 14 -38 48
-24 63 9 10 9 11 -1 6 -17 -10 -42 12 -35 30 3 8 0 14 -6 14 -6 0 -11 8 -11
18 0 11 -9 27 -21 38 -24 22 -48 60 -30 50 7 -5 9 -1 5 8 -3 9 -10 13 -15 10
-5 -3 -6 3 -2 12 5 13 3 15 -8 10 -8 -4 -3 1 10 12 18 15 21 21 11 27 -10 6
-8 10 8 16 15 6 20 13 15 25 -5 13 -3 15 7 9 10 -6 12 -3 8 13 -4 12 -2 20 2
17 5 -3 14 8 22 25 8 19 18 28 27 25 11 -4 11 -2 2 9 -9 11 -8 15 6 20 15 6
15 8 3 16 -13 8 -12 10 3 10 9 0 17 7 17 14 0 8 11 27 24 41 14 15 23 35 21
45 -2 12 6 27 22 40 14 11 20 20 12 20 -10 0 -9 3 2 13 8 6 22 21 29 31 13 18
13 19 0 12 -12 -6 -12 -5 1 6 8 7 19 22 23 33 6 16 9 17 16 5 13 -21 12 -3 -1
22 -9 16 -8 19 2 13 9 -6 11 -3 6 8 -4 12 -2 14 10 10 10 -4 14 -2 10 4 -4 6
-3 13 3 15 5 1 11 13 13 25 2 12 7 26 12 30 4 5 5 1 1 -7 -4 -8 -1 -7 8 3 8
11 13 27 11 37 -3 14 1 18 17 15 16 -4 18 -2 8 10 -10 12 -9 15 6 15 17 0 17
1 -2 16 -10 8 -13 13 -7 9 9 -4 11 -1 7 9 -3 9 -12 16 -20 16 -8 0 -14 4 -14
9 0 4 -15 8 -33 8 -18 -1 -38 2 -45 7 -7 4 -12 3 -12 -2 0 -4 -22 -6 -50 -2
-27 4 -50 3 -50 -2 0 -5 -9 -4 -20 2 -11 6 -20 7 -20 2 0 -5 -22 -6 -50 -2
-27 4 -50 4 -50 0 0 -4 -22 -4 -50 0 -27 4 -50 3 -50 -2 0 -5 -9 -4 -20 2 -11
6 -20 7 -20 2 0 -5 -22 -6 -50 -2 -27 4 -50 4 -50 0 0 -4 -22 -4 -50 0 -27 4
-50 3 -50 -2 0 -5 -9 -4 -20 2 -11 6 -20 7 -20 3 0 -5 -20 -7 -45 -5 -25 2
-45 8 -45 13 0 5 -10 14 -22 19 -21 8 -22 9 -3 10 18 1 18 2 -3 11 -13 5 -21
13 -18 18 4 5 -1 16 -9 25 -9 8 -16 18 -15 21 1 21 -1 25 -10 20 -6 -4 -7 1
-3 11 4 12 3 15 -5 10 -8 -5 -10 -2 -6 8 4 11 0 16 -11 16 -14 0 -15 3 -6 14
9 11 9 16 0 22 -8 5 -10 3 -4 -7 6 -10 5 -11 -4 -3 -7 6 -13 20 -14 32 0 11
-4 19 -8 16 -4 -2 -13 4 -20 13 -12 14 -12 15 0 9 9 -6 8 -1 -3 16 -9 14 -13
28 -9 32 4 4 -3 9 -16 13 -17 4 -19 8 -9 14 10 7 9 9 -4 9 -12 0 -15 5 -11 17
4 10 2 14 -4 10 -6 -4 -13 0 -17 8 -3 8 0 15 7 15 8 0 7 4 -3 9 -8 6 -19 7
-25 4 -5 -4 -7 -2 -2 2 4 5 -1 17 -10 28 -10 11 -12 17 -6 13 10 -5 11 -1 4
17 -6 14 -7 28 -3 33 4 4 2 4 -5 0 -7 -4 -10 -14 -7 -24 2 -9 -4 1 -15 23 -11
21 -17 44 -14 49 3 5 1 6 -5 2 -7 -4 -12 -4 -13 1 -2 24 -8 46 -15 51 -4 4 -4
-2 0 -12 5 -16 4 -17 -9 -6 -8 7 -12 16 -9 21 3 5 -3 17 -13 27 -11 9 -12 13
-4 7 12 -9 12 -7 1 11 -10 16 -23 21 -56 21 -24 1 -42 -3 -39 -7z m71 -172 c5
-8 2 -9 -9 -5 -27 10 -20 1 16 -22 17 -11 27 -21 21 -21 -6 0 -11 -7 -11 -15
0 -11 4 -12 14 -3 11 8 12 7 7 -6 -3 -9 -2 -16 4 -16 6 0 13 -13 17 -30 4 -19
13 -30 23 -30 15 0 15 -2 2 -10 -13 -8 -13 -10 2 -10 12 0 16 -6 13 -20 -2
-11 0 -18 6 -15 5 4 9 1 9 -6 0 -6 8 -18 18 -26 10 -8 11 -11 2 -7 -12 7 -13
5 -3 -8 7 -8 9 -19 5 -24 -4 -5 -3 -6 2 -2 13 11 39 -21 33 -42 -3 -13 -1 -17
9 -13 10 3 16 -5 21 -28 4 -19 6 -38 5 -43 -2 -5 5 -3 14 5 16 12 17 12 11 -4
-4 -11 -1 -20 8 -24 13 -4 13 -8 3 -21 -10 -12 -10 -14 0 -8 7 4 12 2 12 -4 0
-6 5 -8 10 -5 6 4 10 3 9 -2 -4 -22 2 -54 9 -49 5 3 17 -9 27 -26 10 -17 13
-28 7 -24 -8 5 -10 2 -6 -8 3 -9 10 -14 16 -13 6 1 12 -9 14 -23 3 -13 13 -34
24 -45 11 -12 17 -25 13 -30 -5 -4 0 -5 10 -2 11 4 16 3 12 -3 -3 -6 -1 -10 6
-10 10 0 10 -3 1 -12 -8 -8 -7 -15 7 -27 10 -9 24 -27 30 -40 11 -19 11 -25 0
-33 -10 -6 -6 -7 10 -3 15 5 21 3 17 -3 -3 -6 1 -18 10 -26 11 -12 12 -16 2
-16 -7 -1 -2 -7 12 -15 14 -8 19 -14 13 -15 -7 0 -13 -5 -13 -11 0 -5 5 -7 10
-4 6 3 10 1 10 -5 0 -6 5 -8 11 -4 7 4 6 -2 -2 -17 -12 -23 -11 -23 6 -9 17
14 18 13 12 -2 -3 -10 -2 -18 3 -18 6 0 10 -7 10 -16 0 -8 4 -13 8 -10 4 2 9
-5 9 -16 1 -11 10 -26 19 -32 13 -10 14 -15 4 -21 -9 -6 -11 -4 -5 6 5 8 4 10
0 6 -13 -11 -15 -38 -3 -31 6 4 6 -1 -1 -13 -6 -11 -7 -24 -3 -28 4 -5 1 -5
-5 -1 -7 4 -13 3 -13 -1 0 -5 -9 -14 -20 -21 -19 -11 -22 -10 -31 18 -6 16
-15 27 -20 24 -5 -3 -6 2 -3 10 3 9 1 16 -5 16 -6 0 -11 7 -11 15 0 8 -4 15
-10 15 -5 0 -10 9 -10 21 0 13 -4 18 -12 13 -6 -4 -8 -3 -5 4 9 14 -3 43 -14
36 -5 -3 -9 4 -9 16 0 12 -4 19 -9 15 -6 -3 -8 3 -6 15 2 11 -1 23 -7 26 -7 5
-8 2 -3 -7 6 -11 5 -11 -5 -3 -6 7 -13 23 -13 37 -1 14 -5 23 -9 20 -5 -2 -8
1 -8 7 0 6 -6 8 -12 4 -7 -4 -10 -4 -6 1 4 4 2 15 -5 23 -10 13 -9 15 3 8 9
-4 8 -1 -2 7 -10 8 -18 20 -18 26 0 7 -4 10 -9 7 -10 -7 -9 13 2 31 5 7 1 9
-13 6 -20 -5 -26 8 -21 46 2 7 -1 11 -6 8 -12 -7 -30 16 -27 36 1 10 -2 14 -9
10 -7 -4 -8 0 -4 11 4 10 3 15 -3 11 -6 -3 -10 0 -10 7 0 9 -3 9 -10 -2 -6 -9
-10 -10 -10 -3 0 6 4 15 10 18 5 3 -4 19 -20 35 -31 30 -40 47 -17 34 9 -6 9
-5 0 8 -7 8 -10 17 -7 20 3 3 0 9 -7 14 -8 4 -10 3 -5 -4 15 -24 -2 -11 -19
14 -9 15 -12 23 -6 20 6 -4 11 -2 11 3 0 6 -7 11 -16 11 -8 0 -12 5 -9 10 3 6
2 10 -4 10 -5 0 -11 9 -13 20 -2 12 -7 20 -12 20 -16 -3 -25 24 -13 39 10 12
9 13 -2 6 -11 -6 -13 -4 -8 8 4 11 2 14 -9 10 -8 -3 -14 1 -14 11 0 9 -4 16
-10 16 -5 0 -10 5 -10 11 0 5 5 7 12 3 7 -5 8 -3 4 5 -5 7 -14 10 -22 7 -8 -3
-14 -1 -14 3 0 17 -32 21 -46 6 -18 -18 -4 -20 16 -2 12 10 12 9 1 -5 -7 -10
-19 -18 -27 -18 -16 0 -36 -34 -26 -45 4 -5 1 -5 -5 -1 -12 7 -17 -6 -16 -41
0 -7 -8 -15 -18 -18 -11 -4 -17 -11 -14 -16 4 -5 2 -9 -4 -9 -6 0 -7 -8 -4
-17 5 -13 2 -15 -11 -10 -9 4 -15 3 -11 -2 3 -5 1 -12 -4 -16 -6 -3 -8 -11 -5
-18 7 -18 -32 -51 -51 -44 -8 4 -15 3 -15 -1 0 -13 -69 -1 -81 15 -10 11 -10
14 2 11 9 -2 13 4 11 16 -2 10 1 15 6 12 12 -7 54 73 45 87 -3 6 -1 7 5 3 7
-4 12 -1 12 9 0 9 5 13 10 10 6 -3 10 -1 10 4 0 6 -6 11 -12 11 -7 1 -1 8 15
16 15 8 27 17 27 20 0 3 -4 2 -10 -1 -17 -10 -11 7 8 22 11 10 12 12 2 8 -9
-4 -7 0 4 9 10 8 16 19 13 24 -7 10 28 43 36 35 3 -3 3 4 0 16 -4 15 -1 21 11
21 9 0 16 3 17 8 3 31 11 58 21 67 8 7 9 6 4 -2 -10 -19 -1 -16 15 4 10 11 10
14 2 9 -7 -4 -13 -2 -13 3 0 6 5 11 10 11 6 0 9 4 8 9 -2 5 6 17 17 26 11 9
14 14 8 10 -7 -3 -13 -2 -13 4 0 19 45 27 56 9z m-283 -413 c-3 -9 -8 -14 -10
-11 -3 3 -2 9 2 15 9 16 15 13 8 -4z m267 -5 c-13 -8 -12 -10 4 -10 12 0 16
-5 12 -15 -3 -8 4 -21 16 -29 11 -8 17 -19 14 -24 -9 -15 -54 -20 -65 -9 -8 8
-11 7 -11 -1 0 -6 -7 -9 -15 -6 -8 4 -12 10 -9 15 3 5 -1 9 -8 9 -8 1 -5 7 7
16 11 8 20 18 20 22 0 4 4 6 8 4 5 -1 6 2 2 8 -9 14 3 30 23 30 15 0 15 -2 2
-10z m45 -48 c-3 -3 -11 0 -18 7 -9 10 -8 11 6 5 10 -3 15 -9 12 -12z m-1131
-153 c5 7 13 8 24 2 10 -6 23 -6 34 0 13 7 18 6 18 -3 0 -10 2 -10 9 0 10 17
22 17 32 1 6 -10 11 -10 22 0 11 8 17 9 22 1 5 -8 10 -8 20 0 10 8 15 8 20 0
5 -8 10 -8 20 0 10 8 15 8 20 0 5 -8 10 -8 20 0 10 8 15 8 20 0 5 -8 10 -8 20
0 10 8 15 8 20 0 5 -8 10 -8 20 0 10 8 15 8 20 0 5 -8 10 -8 20 0 9 8 15 8 20
0 3 -6 12 -7 18 -3 17 10 80 10 95 -1 7 -5 12 -5 12 1 0 5 9 9 20 9 11 0 20
-4 20 -9 0 -6 5 -6 13 -1 15 11 38 11 55 1 6 -5 12 -4 12 0 0 5 9 9 20 9 11 0
20 -4 20 -9 0 -4 6 -5 13 0 17 11 51 10 59 -1 4 -6 12 -5 21 3 11 8 17 9 22 1
5 -8 10 -8 20 0 10 8 15 8 20 0 5 -8 10 -8 20 0 9 8 15 8 20 0 3 -6 12 -7 18
-3 19 12 37 12 37 2 0 -6 6 -7 12 -3 19 12 48 12 48 1 0 -5 5 -5 13 1 7 6 18
7 27 2 7 -4 23 -5 35 0 12 5 28 4 35 0 8 -5 21 -5 30 0 11 6 21 5 28 -2 9 -9
12 -9 12 1 0 11 3 11 17 0 9 -8 19 -14 22 -14 3 0 5 -4 3 -9 -2 -5 4 -16 13
-26 8 -9 12 -20 8 -24 -5 -4 -3 -7 2 -6 24 5 27 -1 9 -15 -24 -18 -38 -19 -28
-2 4 6 -2 4 -13 -6 -16 -14 -23 -15 -29 -6 -5 8 -3 10 6 4 8 -5 11 -4 7 3 -9
14 -49 3 -40 -12 3 -6 -2 -4 -13 5 -19 17 -49 15 -39 -2 4 -5 -1 -6 -9 -3 -9
3 -13 10 -10 15 3 5 -2 6 -10 3 -9 -3 -14 -10 -11 -14 3 -5 -7 -5 -22 -2 -16
4 -43 7 -61 6 -17 -1 -30 1 -27 5 2 5 -7 6 -20 3 -15 -2 -22 -9 -18 -16 3 -6
-2 -4 -13 5 -19 17 -49 15 -39 -2 4 -5 -1 -6 -9 -3 -9 3 -13 10 -10 15 3 5 -2
6 -10 3 -9 -3 -14 -10 -11 -14 3 -5 -7 -5 -22 -2 -16 4 -43 7 -61 6 -17 -1
-30 1 -27 5 2 5 -7 6 -20 3 -15 -2 -22 -9 -18 -16 3 -6 -2 -4 -13 5 -19 17
-49 15 -39 -2 4 -5 -1 -6 -9 -3 -9 3 -13 10 -10 15 3 5 -2 6 -10 3 -9 -3 -14
-10 -11 -14 3 -5 -7 -5 -22 -2 -16 4 -43 7 -61 6 -17 -1 -30 1 -27 5 2 5 -7 6
-20 3 -15 -2 -22 -9 -18 -16 3 -6 -2 -4 -13 5 -19 17 -49 15 -39 -2 4 -5 -1
-6 -9 -3 -9 3 -13 10 -10 15 3 5 -2 6 -10 3 -9 -3 -14 -10 -11 -14 3 -5 -7 -5
-22 -1 -16 4 -34 6 -40 5 -7 -1 -29 -2 -48 -3 -24 -1 -35 -6 -35 -17 0 -8 -4
-13 -9 -9 -5 3 -13 0 -17 -6 -4 -7 -3 -9 3 -6 6 4 14 0 17 -9 3 -8 2 -13 -3
-9 -13 7 -8 -20 7 -37 6 -8 8 -19 4 -23 -4 -5 -1 -5 6 -1 7 4 12 1 12 -8 0 -9
5 -16 10 -16 6 0 10 -9 10 -19 0 -24 16 -36 24 -19 3 7 3 2 0 -11 -4 -15 -2
-21 4 -17 7 4 9 -1 7 -13 -2 -11 4 -26 13 -33 15 -12 16 -11 3 5 -19 25 -8 21
15 -5 10 -12 13 -18 6 -14 -14 8 -12 -28 3 -41 4 -5 4 -1 0 7 -8 13 -7 13 8 1
13 -10 15 -17 6 -27 -9 -11 -8 -14 2 -15 8 0 4 -5 -9 -11 -13 -6 -21 -17 -18
-24 3 -8 -2 -20 -10 -29 -14 -13 -17 -13 -31 0 -8 8 -18 13 -23 10 -4 -3 -6 5
-2 17 4 16 2 19 -8 13 -9 -6 -11 -4 -5 5 5 8 1 18 -10 27 -14 9 -15 13 -4 13
10 1 9 3 -4 11 -9 6 -15 14 -12 19 3 5 -4 12 -16 15 -17 6 -19 9 -8 16 11 7
11 9 1 9 -7 0 -11 4 -8 8 3 5 -3 18 -14 29 -10 12 -16 24 -13 27 4 3 1 6 -6 6
-7 0 -9 5 -6 10 3 6 0 10 -8 10 -8 0 -17 9 -20 20 -3 13 -1 18 6 14 7 -4 0 5
-15 18 -22 20 -25 27 -15 38 9 10 9 11 0 6 -12 -6 -18 5 -14 27 0 4 -5 6 -11
5 -7 -2 -12 3 -10 10 1 6 -2 12 -8 12 -6 0 -9 3 -9 8 1 4 1 16 0 27 -1 17 -3
18 -11 5 -8 -13 -10 -12 -10 3 0 9 -5 17 -11 17 -5 0 -8 4 -4 9 3 6 -1 16 -8
23 -10 9 -11 15 -3 24 7 8 13 8 17 2 4 -7 9 -6 13 1z m1646 0 c0 8 5 9 18 2
11 -6 24 -6 32 -1 9 5 19 5 27 -2 7 -6 13 -6 13 -1 0 5 9 9 20 9 11 0 20 -4
20 -9 0 -4 6 -5 12 -1 19 12 48 12 48 0 0 -6 4 -6 12 2 7 7 17 8 29 2 12 -7
20 -6 24 0 5 8 11 8 20 0 10 -8 15 -8 20 0 5 8 10 8 20 0 10 -8 15 -8 20 0 5
8 10 8 20 0 7 -6 15 -7 18 -3 6 10 78 10 95 -1 7 -4 12 -2 12 5 0 8 4 8 15 -1
12 -10 15 -10 15 1 1 9 5 8 15 -5 10 -13 15 -15 15 -6 0 7 2 11 5 8 10 -9 -7
-38 -18 -31 -6 4 -8 0 -4 -10 3 -10 2 -17 -4 -17 -6 0 -7 -4 -4 -10 4 -6 -1
-7 -12 -3 -16 6 -16 5 -4 -11 12 -15 12 -17 0 -14 -9 2 -14 -5 -13 -20 1 -19
-1 -20 -14 -10 -11 9 -14 10 -9 1 9 -14 -10 -52 -35 -71 -9 -7 -15 -21 -13
-32 2 -13 -2 -20 -11 -20 -17 0 -19 -16 -1 -23 7 -3 6 -6 -5 -6 -9 -1 -20 -6
-24 -13 -5 -7 -3 -8 5 -3 7 4 5 -4 -4 -19 -9 -14 -22 -23 -28 -19 -6 3 -7 1
-3 -6 4 -6 2 -18 -4 -26 -6 -8 -9 -19 -5 -25 4 -6 1 -9 -7 -8 -7 2 -12 -3 -10
-9 1 -7 -3 -13 -9 -13 -5 0 -8 -4 -4 -9 3 -6 -3 -15 -14 -20 -13 -8 -17 -17
-14 -32 4 -15 3 -20 -5 -15 -7 4 -12 2 -12 -4 0 -6 -4 -9 -8 -6 -5 3 -8 -8 -7
-23 1 -21 -2 -28 -12 -24 -8 3 -13 0 -11 -8 2 -8 -2 -13 -8 -12 -7 1 -10 -6
-7 -16 3 -10 -2 -21 -10 -24 -8 -3 -18 -19 -22 -36 -4 -17 -11 -29 -16 -25 -5
3 -9 -2 -9 -10 0 -9 -6 -16 -12 -16 -9 0 -8 -4 2 -10 12 -7 12 -10 1 -10 -7 0
-11 -6 -8 -14 4 -10 0 -14 -14 -11 -16 3 -18 1 -8 -17 8 -15 8 -19 0 -14 -6 4
-11 2 -11 -4 0 -6 -4 -8 -10 -5 -5 3 -7 0 -4 -8 3 -8 0 -18 -5 -22 -6 -3 -8
-11 -5 -17 4 -6 2 -8 -4 -4 -6 3 -13 2 -17 -4 -3 -5 -1 -10 5 -10 6 0 1 -10
-10 -22 -11 -12 -18 -29 -15 -36 3 -10 0 -12 -10 -8 -10 3 -15 0 -15 -11 0 -9
-8 -22 -17 -30 -10 -8 -12 -11 -5 -8 11 6 12 3 3 -14 -7 -11 -16 -21 -21 -21
-5 0 -7 -9 -5 -19 2 -11 -4 -26 -13 -33 -16 -12 -16 -11 -2 7 14 19 14 19 -2
6 -10 -7 -18 -20 -18 -28 0 -10 -6 -13 -16 -9 -15 6 -15 4 -3 -11 13 -16 12
-16 -15 1 -16 10 -25 12 -21 5 6 -9 2 -11 -13 -7 -12 4 -25 2 -28 -3 -3 -5
-10 -9 -16 -9 -6 0 -1 9 12 20 13 11 19 20 14 20 -6 0 -15 -5 -21 -11 -9 -9
-12 -7 -10 9 0 11 5 18 9 16 4 -3 8 3 8 13 0 10 9 24 20 31 12 7 20 18 19 25
-3 26 2 37 16 37 9 0 12 6 9 15 -4 8 -1 15 7 15 7 0 9 3 6 6 -4 4 2 14 12 23
10 9 17 24 15 34 -1 9 1 15 5 13 4 -3 13 4 20 16 10 16 10 19 -1 13 -7 -3 -4
1 6 9 11 9 16 16 12 16 -5 0 2 9 15 21 13 11 18 18 12 14 -22 -11 -14 5 14 29
20 17 23 25 13 31 -9 6 -11 4 -5 -5 5 -9 4 -11 -4 -6 -6 4 -9 12 -5 17 3 5 9
7 13 5 4 -3 18 15 30 40 13 26 27 41 33 38 6 -4 8 -2 5 3 -4 6 0 16 8 23 7 6
11 18 8 26 -3 8 0 14 7 14 6 0 9 4 6 9 -4 5 0 11 6 13 7 3 13 13 13 24 0 12 6
18 19 17 13 -1 15 2 7 10 -7 7 -5 14 7 24 12 10 12 12 2 8 -10 -4 -9 -2 2 8
10 8 15 17 11 20 -3 4 1 7 10 7 10 0 17 5 17 11 0 5 -4 8 -9 4 -5 -3 -3 8 5
25 9 16 19 30 24 30 5 0 7 9 5 21 -3 17 -2 19 10 9 12 -10 13 -8 10 9 -2 11
-1 20 3 18 4 -1 8 2 9 7 1 5 6 12 12 16 6 3 14 17 16 30 2 13 8 26 12 29 13
10 14 31 0 31 -8 0 -7 4 3 10 10 6 11 10 3 10 -7 0 -13 6 -13 13 0 9 -12 13
-40 11 -23 -1 -40 3 -40 9 0 6 -6 3 -13 -8 -11 -14 -16 -15 -22 -5 -6 9 -4 11
5 5 9 -5 11 -4 6 3 -5 9 -12 8 -28 -1 -16 -10 -22 -9 -25 1 -4 10 -9 8 -20 -5
-8 -10 -12 -13 -9 -7 8 15 -21 26 -30 12 -5 -7 -2 -8 6 -3 8 5 11 4 6 -3 -8
-13 -36 -5 -36 11 0 6 -6 3 -13 -7 -12 -16 -14 -16 -26 -2 -10 12 -18 13 -33
5 -15 -8 -19 -8 -14 0 4 6 0 11 -8 11 -9 0 -13 6 -10 15 3 8 -6 26 -20 40 -26
26 -34 41 -16 30 5 -3 18 -2 27 4 12 6 22 6 30 -1 9 -7 13 -7 13 1z m-170 -19
c0 -5 -2 -10 -4 -10 -3 0 -8 5 -11 10 -3 6 -1 10 4 10 6 0 11 -4 11 -10z
m-1033 -199 c-10 -12 -9 -13 7 -8 16 6 17 5 6 -8 -7 -8 -17 -12 -23 -8 -5 3
-7 1 -3 -5 3 -6 -1 -17 -9 -25 -18 -18 -20 -31 -3 -21 7 4 8 3 4 -5 -4 -6 -12
-8 -18 -5 -8 5 -9 1 -4 -11 5 -15 4 -16 -9 -5 -9 7 -13 15 -10 18 3 3 -7 14
-22 25 -20 13 -22 17 -8 13 16 -5 16 -3 -5 14 -14 11 -20 20 -13 20 7 0 10 6
8 13 -4 9 11 12 54 12 50 0 58 -2 48 -14z m253 6 c0 -5 6 -5 13 -1 6 4 4 -1
-5 -12 -16 -18 -18 -23 -18 -44 0 -5 -5 -10 -11 -10 -8 0 -8 5 1 15 20 24 5
18 -16 -7 -10 -12 -13 -18 -6 -14 6 4 12 3 12 -3 0 -5 -7 -14 -17 -19 -10 -6
-14 -16 -10 -26 4 -9 3 -15 -2 -12 -5 3 -15 -2 -22 -11 -12 -14 -12 -16 0 -8
11 6 12 5 5 -6 -5 -8 -9 -18 -9 -23 0 -5 -6 -11 -14 -14 -9 -3 -11 0 -6 8 5 8
4 11 -3 6 -6 -3 -9 -15 -7 -26 2 -11 -1 -20 -6 -20 -6 0 -7 -4 -4 -10 3 -5 -1
-10 -9 -10 -10 0 -13 -7 -11 -20 2 -11 0 -18 -6 -15 -5 4 -9 -1 -9 -10 0 -8
-6 -18 -14 -21 -8 -3 -12 -12 -10 -19 3 -7 0 -16 -7 -21 -8 -5 -10 -3 -4 6 5
9 4 11 -4 6 -9 -6 -9 -11 -1 -21 8 -10 8 -15 -1 -21 -8 -5 -9 -3 -4 6 5 9 4
11 -3 6 -7 -4 -12 -14 -12 -22 0 -20 -30 -65 -40 -59 -4 2 -7 -3 -7 -13 0 -35
-3 -42 -20 -43 -13 0 -14 -2 -4 -6 10 -4 8 -9 -10 -20 -18 -11 -19 -13 -4 -9
17 5 16 3 -5 -14 -14 -11 -21 -20 -16 -20 6 0 1 -7 -10 -16 -10 -8 -13 -13 -6
-9 21 11 13 -5 -15 -32 -16 -15 -22 -23 -15 -19 11 7 11 4 0 -13 -7 -12 -16
-21 -21 -21 -4 0 -6 -4 -2 -10 3 -5 -3 -18 -15 -30 -11 -11 -20 -23 -20 -27 0
-21 -12 -43 -21 -38 -5 4 -9 -3 -9 -14 0 -12 -6 -21 -12 -21 -10 0 -9 -3 1 -9
11 -7 10 -10 -5 -15 -20 -6 -50 -66 -33 -66 5 0 9 -5 9 -11 0 -5 -4 -7 -10 -4
-6 3 -7 -1 -4 -9 3 -9 12 -16 19 -16 7 0 16 -7 19 -16 5 -13 9 -14 21 -4 8 7
15 9 15 4 0 -4 5 -3 12 4 15 15 28 15 28 1 0 -5 -5 -7 -12 -3 -7 4 -8 3 -4 -5
6 -9 11 -9 23 1 20 17 46 19 40 4 -3 -7 1 -13 9 -13 7 0 11 4 9 7 -3 4 5 8 18
9 78 4 95 4 117 -4 31 -9 60 -39 60 -60 0 -9 4 -14 8 -11 5 3 8 -7 7 -21 0
-16 -7 -27 -18 -29 -10 -1 -14 2 -11 8 4 6 -1 8 -15 3 -17 -5 -20 -3 -14 12 6
17 6 17 -10 1 -13 -13 -24 -15 -47 -8 -17 5 -28 5 -25 0 3 -4 -2 -11 -11 -14
-8 -3 -13 -2 -10 2 2 4 -7 12 -20 19 -13 6 -22 8 -19 3 6 -10 -46 -7 -65 5
-13 7 -13 6 -2 -7 10 -13 10 -17 -3 -22 -9 -3 -14 -2 -11 2 2 4 -7 12 -20 19
-13 6 -22 8 -19 3 6 -10 -46 -7 -65 5 -13 7 -13 6 -2 -7 10 -13 10 -17 -3 -22
-9 -3 -14 -2 -11 3 3 5 -1 12 -10 15 -8 3 -12 2 -9 -3 3 -5 1 -12 -5 -16 -5
-3 -10 2 -11 12 0 10 -3 13 -6 6 -7 -20 -23 -15 -17 5 4 12 3 14 -4 4 -10 -15
-85 -25 -76 -10 3 5 -8 2 -25 -6 -17 -9 -31 -13 -30 -9 4 22 -2 34 -14 28 -6
-4 -3 1 8 10 11 9 20 24 20 33 1 9 7 16 14 14 7 -1 9 2 6 8 -4 6 1 18 11 26
11 9 13 12 5 9 -9 -5 -8 1 4 19 9 14 21 23 26 20 5 -3 6 3 2 12 -4 11 -2 15 4
11 6 -4 8 4 6 21 -4 21 -2 24 6 12 10 -13 15 -8 12 13 0 4 4 7 10 7 5 0 8 4 5
9 -10 16 5 40 20 34 16 -6 15 17 -1 29 -6 5 -3 8 7 8 9 0 20 5 24 12 5 7 2 9
-7 4 -8 -4 -3 2 11 13 14 11 19 21 12 21 -10 0 -10 3 0 14 7 8 18 11 23 8 6
-3 4 2 -4 11 -12 15 -12 17 2 12 10 -5 15 -1 14 12 -1 10 3 17 10 16 7 -2 10
3 7 11 -3 8 0 17 7 22 8 5 10 3 4 -6 -6 -9 -4 -11 4 -5 9 5 10 10 2 18 -7 7
-3 17 15 34 15 13 23 30 20 38 -3 9 1 15 10 15 10 0 14 6 10 15 -3 10 1 15 12
15 13 0 14 2 4 9 -11 6 -10 11 3 25 9 9 20 14 24 12 4 -3 8 4 8 15 1 12 -3 17
-10 13 -7 -3 0 6 15 20 19 17 26 31 21 42 -4 11 -2 15 4 11 6 -4 17 1 24 10
12 14 12 16 -1 9 -8 -4 -7 -1 3 7 14 11 15 16 5 20 -8 3 -6 6 5 6 11 1 15 5
11 13 -5 8 -2 9 11 4 15 -5 16 -4 5 9 -10 12 -9 15 6 15 16 0 17 2 4 10 -12 8
-11 11 8 16 18 5 20 9 11 21 -10 11 -9 13 2 11 8 -2 13 4 11 13 -1 9 5 23 15
30 14 12 16 12 8 0 -5 -9 -4 -12 3 -7 6 3 9 16 7 27 -2 11 2 22 10 26 8 3 15
16 15 29 0 15 6 24 16 24 8 0 12 5 9 10 -3 6 -1 10 4 10 6 0 10 6 9 13 -2 6 3
11 10 10 6 -2 12 0 12 5 0 4 23 7 50 7 28 0 50 -4 50 -8z m144 1 c-6 -10 -4
-10 7 -3 17 13 429 12 449 0 9 -5 11 -4 6 3 -8 14 -4 15 18 6 9 -3 16 -13 16
-21 0 -8 5 -11 11 -7 8 4 9 0 4 -15 -4 -15 -3 -21 7 -19 7 2 14 -7 16 -20 2
-14 8 -20 15 -16 7 4 9 4 5 -1 -4 -4 -2 -15 5 -23 10 -13 9 -14 -3 -7 -13 8
-13 6 -1 -8 7 -9 17 -14 22 -11 5 3 6 -3 2 -12 -5 -13 -3 -16 10 -11 11 4 14
2 11 -8 -3 -8 2 -22 11 -31 9 -9 14 -23 11 -31 -3 -8 -1 -11 4 -8 9 5 15 -16
11 -38 -1 -5 3 -6 9 -2 5 3 10 0 10 -7 0 -9 3 -9 10 2 6 9 10 10 10 3 0 -6 -5
-15 -10 -18 -7 -4 -3 -14 10 -25 11 -9 20 -22 20 -29 0 -6 4 -11 10 -11 5 0 7
-7 4 -15 -4 -8 -1 -15 6 -15 6 0 8 -5 4 -12 -5 -7 -2 -9 7 -6 9 4 14 -2 14
-17 0 -15 -5 -21 -14 -17 -9 3 -12 1 -7 -6 4 -7 1 -15 -8 -18 -8 -3 -12 -12
-9 -20 3 -8 0 -14 -7 -14 -7 0 -10 -8 -7 -20 3 -11 2 -18 -3 -15 -4 3 -14 -3
-21 -12 -12 -14 -12 -15 -1 -9 11 7 12 4 2 -13 -6 -12 -17 -24 -25 -27 -8 -3
-12 -11 -9 -19 3 -7 -2 -15 -11 -19 -9 -3 -13 -11 -9 -18 5 -7 2 -9 -8 -5 -12
4 -14 1 -10 -15 3 -14 1 -19 -6 -14 -7 4 -10 -1 -7 -14 2 -11 -1 -19 -8 -17
-7 1 -11 -8 -11 -20 1 -13 -3 -20 -7 -17 -5 3 -9 0 -9 -6 0 -6 -4 -8 -10 -5
-6 3 -7 -1 -4 -9 4 -9 1 -16 -6 -16 -10 0 -10 -3 0 -15 11 -13 10 -14 -5 -8
-15 5 -17 3 -12 -11 4 -10 3 -15 -3 -11 -6 3 -10 0 -10 -8 0 -8 -8 -21 -17
-28 -16 -12 -17 -12 -6 2 11 13 8 15 -22 14 -20 -1 -45 -11 -57 -21 -12 -10
-18 -14 -15 -7 4 6 2 15 -5 19 -21 13 -70 11 -75 -2 -2 -7 -13 -12 -23 -11
-10 1 -16 5 -14 9 3 5 10 5 16 2 7 -4 8 -2 4 5 -8 12 -19 8 -50 -18 -11 -9
-16 -11 -13 -4 4 6 2 15 -5 19 -21 13 -70 11 -75 -2 -2 -7 -13 -12 -23 -11
-10 1 -16 5 -14 9 3 5 10 5 16 2 7 -4 8 -2 4 5 -6 9 -13 8 -31 -3 -17 -12 -26
-13 -31 -4 -5 7 -2 8 7 3 8 -5 11 -4 6 0 -10 12 -57 13 -64 1 -4 -5 -1 -6 7
-1 9 5 11 4 6 -4 -9 -14 -26 -5 -26 14 0 7 -9 17 -20 20 -11 4 -18 11 -15 16
4 5 -2 9 -12 10 -12 0 -14 2 -4 6 10 4 10 7 2 13 -7 4 -13 16 -14 27 -1 14 -6
19 -15 15 -11 -4 -13 0 -7 18 5 15 4 20 -4 16 -7 -4 -11 1 -11 13 0 12 -4 21
-10 21 -5 0 -10 7 -10 15 0 8 -4 15 -9 15 -5 0 -17 12 -27 28 -17 26 -17 27 1
12 18 -14 18 -13 0 12 -11 15 -24 28 -28 28 -5 0 -5 5 -2 10 3 6 1 10 -6 10
-7 0 -9 3 -5 7 3 4 -4 13 -16 20 l-23 14 25 -6 c21 -5 22 -4 8 5 -9 6 -27 25
-39 42 -13 17 -17 28 -10 24 8 -5 6 2 -4 18 -17 25 -17 26 0 19 15 -5 17 -3
12 11 -4 9 -3 15 1 12 4 -3 14 5 22 17 12 20 12 21 -3 8 -28 -22 -19 -4 13 29
29 30 41 58 18 44 -7 -4 -8 -3 -4 5 4 6 11 9 16 6 4 -3 14 3 21 12 12 14 12
16 -1 8 -13 -8 -13 -7 -1 8 7 9 10 17 5 17 -5 0 -1 5 9 11 9 5 17 19 17 30 0
11 5 17 10 14 6 -3 10 1 10 10 0 10 5 13 12 9 6 -4 8 -3 5 3 -8 13 20 73 34
73 5 0 8 6 7 13 -2 6 3 11 10 9 10 -2 10 2 1 20 -11 21 -11 22 4 10 14 -12 16
-11 12 7 -2 12 0 19 4 16 5 -3 11 2 15 10 3 8 8 15 11 15 4 0 3 -6 -1 -12z
m895 1 c17 11 73 4 82 -11 9 -14 0 -40 -11 -33 -4 3 -11 -7 -14 -20 -4 -17
-11 -23 -19 -18 -9 5 -9 3 0 -8 10 -13 10 -16 -2 -16 -8 0 -15 6 -15 13 0 7
-8 19 -19 26 -10 7 -21 22 -23 33 -2 11 -10 19 -18 17 -11 -3 -11 0 0 13 8 9
16 12 19 6 4 -5 12 -6 20 -2z m351 1 c0 -5 -5 -10 -11 -10 -5 0 -7 5 -4 10 3
6 8 10 11 10 2 0 4 -4 4 -10z m-345 -80 c3 -6 -1 -7 -9 -4 -18 7 -21 14 -7 14
6 0 13 -4 16 -10z m373 -60 c-7 -10 -14 -17 -17 -15 -4 4 18 35 25 35 2 0 -1
-9 -8 -20z m-1609 -427 c-13 -15 -12 -15 7 -5 22 12 44 0 44 -22 0 -6 -4 -4
-10 4 -5 8 -11 12 -14 10 -2 -3 4 -16 16 -30 11 -14 16 -19 12 -11 -5 10 -3
12 5 7 9 -6 9 -11 0 -22 -7 -9 -8 -14 -3 -13 23 4 33 -2 27 -18 -5 -13 -2 -15
12 -10 15 6 16 5 5 -8 -10 -12 -10 -15 0 -15 7 0 10 -8 7 -19 -3 -15 -1 -18
11 -14 11 5 14 2 9 -10 -4 -11 -1 -17 8 -17 8 0 14 -3 14 -7 -3 -20 2 -34 10
-29 5 4 8 -5 7 -18 -2 -14 0 -25 3 -24 21 2 29 -5 26 -22 -2 -11 0 -18 6 -15
5 4 9 -6 9 -20 0 -15 4 -24 10 -20 6 3 10 -1 10 -10 0 -9 5 -13 10 -10 13 8
13 -1 -1 -28 -9 -18 -9 -20 2 -9 15 14 33 16 24 3 -3 -5 0 -13 6 -16 5 -4 8
-13 5 -21 -3 -9 1 -14 12 -14 15 0 15 -2 2 -10 -13 -8 -12 -10 3 -10 15 0 22
-18 18 -43 -1 -5 4 -5 10 -1 9 5 10 2 6 -10 -4 -9 -3 -14 2 -11 9 5 27 -32 23
-48 -1 -5 2 -6 8 -2 5 3 10 -1 10 -9 0 -9 5 -16 11 -16 5 0 7 -4 4 -10 -3 -5
-1 -10 5 -10 7 0 9 -7 6 -16 -3 -8 -2 -13 2 -10 4 3 14 -4 21 -16 10 -16 10
-19 -1 -13 -7 3 -2 -3 11 -14 13 -12 21 -27 18 -35 -7 -16 17 -41 31 -32 5 3
8 -6 6 -19 -1 -14 4 -29 12 -33 8 -5 16 -18 17 -29 0 -12 4 -20 8 -17 4 2 10
-3 13 -12 5 -14 9 -14 23 -3 10 8 14 9 10 2 -5 -8 0 -11 13 -10 11 1 20 5 20
10 0 4 4 5 10 2 5 -3 12 7 16 22 4 15 16 36 28 46 11 10 15 16 9 12 -9 -4 -11
-1 -7 9 3 9 11 13 18 9 6 -4 4 2 -4 12 -8 10 -10 16 -4 12 6 -3 18 3 27 13 9
11 12 20 5 22 -5 2 -2 10 8 18 16 13 17 13 9 0 -4 -8 -4 -12 0 -7 5 4 10 14
12 22 2 8 5 23 7 33 2 9 9 16 15 15 6 -2 11 2 11 8 0 8 4 8 14 0 11 -10 17 -8
25 6 7 12 10 13 11 4 0 -11 3 -11 17 0 9 8 14 9 10 3 -4 -7 0 -14 8 -17 10 -4
12 -1 9 11 -5 14 -4 14 6 -1 10 -15 8 -23 -7 -39 -12 -15 -13 -19 -3 -14 8 4
2 -5 -15 -19 -23 -21 -25 -26 -10 -21 19 6 18 5 -2 -13 -17 -14 -19 -21 -10
-30 9 -9 8 -11 -4 -6 -10 4 -20 1 -25 -6 -5 -8 -3 -10 5 -4 10 6 11 3 2 -14
-7 -11 -16 -21 -21 -21 -4 0 -11 -14 -15 -30 -4 -17 -11 -28 -16 -24 -5 3 -9
-5 -9 -18 0 -13 -5 -30 -11 -38 -9 -12 -10 -11 -5 5 6 20 6 20 -9 0 -9 -12
-12 -21 -5 -23 6 -2 4 -10 -5 -18 -8 -9 -20 -12 -26 -8 -8 4 -8 0 0 -15 9 -17
9 -21 -1 -19 -7 2 -12 -3 -11 -9 2 -7 -2 -13 -8 -13 -6 0 -9 -9 -6 -19 3 -14
1 -18 -10 -14 -10 4 -14 0 -11 -13 2 -11 -2 -18 -9 -17 -8 2 -10 -4 -6 -14 5
-13 2 -15 -13 -9 -15 6 -16 4 -7 -5 9 -9 9 -15 -2 -25 -19 -19 -28 -17 -21 3
4 10 4 14 0 11 -12 -13 -33 16 -22 30 8 9 7 11 -7 5 -14 -5 -17 -3 -13 8 4 9
-2 20 -13 27 -10 7 -19 19 -19 28 0 9 -5 12 -12 8 -9 -5 -9 -2 1 9 9 12 10 17
2 17 -7 0 -9 5 -6 10 3 6 -1 10 -9 10 -9 0 -16 9 -16 20 0 11 -4 20 -10 20 -5
0 -10 7 -10 15 0 9 -6 18 -14 21 -8 3 -13 16 -12 29 2 18 -1 22 -13 18 -9 -4
-13 -3 -9 2 9 10 -10 47 -22 40 -4 -3 -6 4 -3 15 3 12 0 20 -8 20 -7 0 -10 3
-6 6 3 4 -4 15 -16 26 -12 11 -16 17 -9 13 6 -3 12 -2 12 3 0 5 -8 12 -18 15
-11 2 -21 14 -25 26 -3 14 -1 19 6 15 7 -3 1 4 -13 17 -14 13 -19 20 -11 14
10 -6 8 0 -4 16 -11 15 -24 24 -30 21 -5 -3 -7 -2 -3 3 4 4 2 15 -5 23 -9 13
-9 14 1 8 6 -4 12 -2 12 3 0 6 -7 11 -15 11 -8 0 -15 9 -15 21 0 11 -5 17 -10
14 -5 -3 -10 3 -10 15 0 13 -4 19 -12 14 -7 -5 -9 0 -6 14 6 21 -7 40 -27 40
-5 0 -11 6 -13 14 -2 9 0 8 7 -2 8 -12 10 -11 8 7 0 12 -4 20 -7 18 -3 -2 -12
0 -20 6 -13 7 -13 9 -1 9 11 0 11 3 -3 13 -9 7 -18 22 -19 34 -1 18 -4 20 -17
10 -8 -6 -12 -7 -8 -3 4 5 2 16 -5 24 -10 13 -9 14 2 8 8 -6 7 0 -4 18 -10 14
-22 26 -28 26 -7 0 -7 4 1 12 7 7 12 17 12 23 0 5 -5 3 -10 -5 -9 -13 -10 -13
-11 0 -1 8 -1 18 0 22 0 5 -3 7 -8 5 -5 -1 -9 2 -9 6 -1 5 -9 15 -19 24 -10 8
-12 12 -6 8 9 -4 11 -1 7 9 -3 9 -14 16 -23 16 -14 0 -14 2 -1 10 11 7 11 10
2 10 -7 0 -10 5 -7 10 3 6 1 10 -4 10 -6 0 -11 10 -11 23 0 16 3 18 9 9 6 -10
10 -9 14 7 3 14 1 19 -6 14 -6 -4 -1 8 12 25 12 18 25 32 28 32 3 0 -1 -7 -8
-17z m1407 -19 c3 -13 10 -24 16 -24 5 0 6 -4 3 -10 -3 -5 -2 -10 4 -10 6 0 8
-7 4 -15 -3 -9 -2 -15 3 -14 21 4 26 -2 14 -16 -11 -13 -10 -14 5 -8 14 5 17
3 12 -10 -4 -10 -2 -16 6 -14 7 1 13 -5 13 -13 1 -8 2 -21 3 -27 0 -7 8 -13
17 -13 8 0 12 -4 9 -10 -3 -5 -1 -10 6 -10 8 0 8 -5 -2 -17 -7 -10 -9 -15 -5
-11 11 9 48 -31 40 -43 -3 -5 0 -9 6 -9 6 0 8 -4 5 -10 -3 -5 -1 -10 5 -10 6
0 9 -4 6 -9 -3 -5 1 -12 10 -15 9 -4 14 -13 10 -22 -4 -10 -2 -13 6 -8 7 5 9
2 5 -9 -4 -12 -2 -14 11 -10 9 3 14 3 10 -2 -4 -4 2 -21 13 -36 11 -16 18 -29
15 -29 -3 0 3 -9 15 -21 19 -19 19 -22 5 -38 -17 -19 -46 -24 -46 -8 0 5 7 6
16 3 9 -3 12 -2 9 5 -4 6 -14 8 -23 4 -8 -3 -20 0 -25 7 -6 10 -7 9 -4 -4 3
-9 -1 -19 -9 -22 -8 -3 -13 -2 -10 3 3 5 -1 12 -10 15 -8 3 -12 2 -9 -3 3 -5
1 -12 -5 -16 -5 -3 -10 2 -11 12 0 10 -3 13 -6 6 -7 -20 -23 -15 -17 5 4 12 3
14 -4 4 -5 -7 -25 -15 -45 -17 -30 -2 -35 0 -29 14 5 14 4 14 -12 -2 -10 -9
-21 -15 -26 -12 -14 9 -90 13 -85 5 3 -4 -2 -11 -11 -14 -8 -3 -12 -2 -9 4 3
6 1 10 -5 10 -6 0 -8 6 -4 13 4 7 3 9 -2 4 -5 -5 -10 -13 -10 -18 -1 -5 -2
-12 -3 -16 0 -4 -8 2 -17 13 -11 13 -14 14 -11 3 3 -9 -1 -16 -9 -16 -10 0
-12 7 -8 21 4 15 3 17 -4 7 -8 -10 -14 -11 -32 -1 -18 10 -21 9 -15 -1 6 -9 3
-11 -9 -6 -9 4 -15 3 -12 -2 3 -5 -1 -12 -10 -15 -8 -3 -13 -2 -10 2 3 4 -5
14 -17 22 -19 12 -21 11 -10 -2 7 -8 10 -18 6 -21 -3 -4 -12 1 -20 11 -12 14
-14 14 -10 1 3 -9 -1 -16 -9 -16 -8 0 -13 6 -10 13 3 8 0 16 -6 20 -7 5 -8 2
-3 -6 6 -10 4 -12 -9 -7 -9 4 -15 3 -12 -2 3 -5 -1 -12 -10 -15 -8 -3 -12 -2
-9 4 3 6 -1 10 -10 10 -10 0 -13 5 -9 12 5 7 3 8 -7 2 -20 -13 -70 -14 -62 -1
3 6 1 7 -6 3 -6 -4 -9 -11 -6 -16 3 -4 -2 -11 -11 -14 -8 -3 -12 -2 -9 4 6 10
-15 14 -44 11 -7 -2 -10 2 -6 9 6 9 2 9 -14 1 -12 -7 -27 -9 -33 -5 -7 4 -8 3
-4 -4 4 -7 5 -12 2 -12 -2 0 -11 -3 -20 -6 -9 -3 -16 -1 -16 6 0 6 4 8 10 5 6
-3 7 1 3 10 -4 12 -8 13 -13 4 -5 -6 -17 -9 -29 -6 -12 3 -19 2 -16 -3 3 -4
-2 -11 -11 -14 -8 -3 -12 -2 -9 4 3 6 -1 10 -10 10 -10 0 -13 5 -9 12 5 7 3 8
-7 2 -20 -13 -70 -14 -62 -1 3 6 1 7 -6 3 -6 -4 -9 -11 -6 -16 3 -4 -2 -11
-11 -14 -8 -3 -12 -2 -9 4 4 6 -5 10 -20 10 -14 0 -24 -4 -21 -8 2 -4 -4 -8
-15 -8 -24 0 -24 5 -1 23 15 13 15 13 -6 3 -12 -6 -28 -8 -34 -4 -6 4 -8 3 -5
-3 4 -6 0 -14 -9 -17 -8 -3 -12 -2 -9 4 6 9 -8 14 -27 11 -5 0 -8 6 -8 14 0 8
-6 15 -12 16 -10 0 -9 2 0 6 10 4 5 11 -15 25 l-28 19 30 -6 c26 -5 27 -4 8 4
-25 11 -29 26 -11 37 7 4 8 3 4 -4 -8 -14 20 -12 43 2 10 6 12 5 7 -2 -10 -16
7 -15 23 1 11 10 13 9 7 -1 -8 -14 19 -12 43 2 10 7 12 6 6 -4 -6 -10 -4 -12
7 -7 9 3 21 0 27 -6 9 -9 11 -7 5 8 -6 16 -4 18 6 8 11 -10 17 -10 29 0 12 9
13 9 7 0 -4 -7 -3 -13 1 -13 5 0 15 6 22 13 11 10 13 9 7 -1 -8 -14 19 -12 43
2 10 7 12 6 6 -4 -6 -10 -4 -12 7 -7 9 3 21 0 27 -6 9 -9 11 -7 5 8 -6 16 -4
18 6 8 11 -10 17 -10 29 0 12 9 13 9 7 0 -4 -7 -3 -13 1 -13 5 0 15 6 22 13
11 10 13 9 7 -1 -8 -14 19 -12 43 2 10 7 12 6 6 -4 -6 -10 -4 -12 7 -7 9 3 21
0 27 -6 9 -9 10 -7 5 8 -7 17 -5 18 7 8 12 -10 18 -10 29 0 10 9 11 9 6 0 -4
-7 -3 -13 1 -13 5 0 15 6 22 13 11 10 13 9 7 -1 -8 -14 19 -12 43 2 10 7 12 6
6 -4 -6 -10 -4 -12 7 -7 9 3 21 0 27 -6 9 -9 10 -7 5 8 -7 17 -5 18 8 8 8 -7
17 -10 20 -7 3 3 24 6 47 7 32 2 40 -1 36 -12 -4 -11 -3 -12 10 -1 8 7 15 9
15 4 0 -4 5 -3 12 4 15 15 28 15 28 1 0 -5 -5 -7 -12 -3 -7 4 -8 3 -4 -5 6 -9
11 -9 23 1 20 17 46 19 40 4 -3 -7 1 -13 9 -13 7 0 11 4 9 7 -3 4 5 8 18 9 12
0 39 2 60 4 27 2 37 -2 37 -12 0 -11 4 -10 16 5 8 10 12 12 8 4 -4 -9 2 -6 13
5 14 13 16 22 9 27 -7 5 -6 8 4 8 11 0 11 3 2 12 -9 9 -9 15 1 27 9 12 9 13 0
7 -7 -4 -13 -2 -13 3 0 6 -9 20 -20 31 -11 11 -20 28 -20 39 0 10 -7 24 -15
31 -9 7 -13 15 -10 18 3 3 -6 20 -20 37 -13 18 -21 35 -18 39 4 3 -1 6 -9 6
-16 0 -28 26 -21 48 3 6 10 9 16 5 6 -4 8 0 4 10 -4 12 -1 17 10 17 13 0 14 2
2 17 -8 9 -9 14 -3 10 7 -4 14 0 18 8 8 21 35 7 42 -21z m-36 -159 c14 -19 14
-19 -2 -6 -10 7 -18 18 -18 24 0 6 1 8 3 6 1 -2 9 -13 17 -24z m-1464 -44 c6
-12 15 -25 19 -29 5 -4 5 -1 0 7 -5 10 -4 12 4 7 6 -4 9 -12 5 -17 -3 -5 0
-17 8 -26 9 -12 9 -15 1 -9 -8 4 -13 1 -13 -9 0 -10 5 -13 12 -9 6 4 8 3 5 -2
-9 -15 -77 -9 -88 7 -7 11 -9 11 -9 -3 0 -10 -4 -18 -8 -18 -15 0 -6 57 12 85
9 14 14 30 11 34 -3 5 3 8 12 7 10 -2 23 -13 29 -25z m1370 12 c-3 -7 0 -13 6
-13 6 0 8 -3 5 -6 -8 -8 12 -46 21 -40 4 2 7 -6 7 -19 0 -15 -5 -21 -14 -17
-8 3 -12 1 -8 -4 6 -11 -53 -12 -70 -1 -20 13 -21 46 -2 68 10 12 16 27 12 33
-4 6 1 5 10 -3 15 -12 17 -12 12 1 -4 9 0 15 10 15 9 0 14 -6 11 -14z m-766
-105 c0 -4 -4 -8 -9 -8 -6 0 -12 4 -15 8 -3 5 1 9 9 9 8 0 15 -4 15 -9z m160
0 c0 -4 -4 -8 -9 -8 -6 0 -12 4 -15 8 -3 5 1 9 9 9 8 0 15 -4 15 -9z m120 1
c0 -4 -9 -7 -19 -6 -11 0 -18 4 -16 7 6 9 35 8 35 -1z m420 1 c0 -5 -5 -10
-11 -10 -5 0 -7 5 -4 10 3 6 8 10 11 10 2 0 4 -4 4 -10z m-1476 -208 c3 -5 -1
-9 -9 -9 -8 0 -15 4 -15 9 0 4 4 8 9 8 6 0 12 -4 15 -8z m31 -2 c3 -5 1 -10
-4 -10 -6 0 -11 5 -11 10 0 6 2 10 4 10 3 0 8 -4 11 -10z m89 2 c3 -5 -1 -9
-9 -9 -8 0 -15 4 -15 9 0 4 4 8 9 8 6 0 12 -4 15 -8z m31 -2 c3 -5 1 -10 -4
-10 -6 0 -11 5 -11 10 0 6 2 10 4 10 3 0 8 -4 11 -10z m769 2 c3 -5 -1 -9 -9
-9 -8 0 -15 4 -15 9 0 4 4 8 9 8 6 0 12 -4 15 -8z m31 -2 c3 -5 1 -10 -4 -10
-6 0 -11 5 -11 10 0 6 2 10 4 10 3 0 8 -4 11 -10z m169 2 c3 -5 -1 -9 -9 -9
-8 0 -15 4 -15 9 0 4 4 8 9 8 6 0 12 -4 15 -8z m31 -2 c3 -5 1 -10 -4 -10 -6
0 -11 5 -11 10 0 6 2 10 4 10 3 0 8 -4 11 -10z m89 2 c3 -5 -1 -9 -9 -9 -8 0
-15 4 -15 9 0 4 4 8 9 8 6 0 12 -4 15 -8z m31 -2 c3 -5 1 -10 -4 -10 -6 0 -11
5 -11 10 0 6 2 10 4 10 3 0 8 -4 11 -10z m209 2 c3 -5 -1 -9 -9 -9 -8 0 -15 4
-15 9 0 4 4 8 9 8 6 0 12 -4 15 -8z m160 0 c3 -5 -1 -9 -9 -9 -8 0 -15 4 -15
9 0 4 4 8 9 8 6 0 12 -4 15 -8z m-747 -121 c-19 -41 -32 -59 -40 -54 -6 4 -7
1 -2 -7 4 -7 2 -16 -6 -21 -21 -13 -35 -11 -21 3 16 16 15 29 0 26 -7 -2 -12
3 -10 10 1 6 -3 11 -9 10 -6 -2 -13 5 -14 15 -2 9 1 17 6 17 4 0 6 7 3 15 -6
13 11 15 44 6 8 -3 16 6 14 14 -2 5 6 1 17 -9 11 -10 19 -21 18 -25z m403 19
c0 -5 -5 -10 -11 -10 -5 0 -7 5 -4 10 3 6 8 10 11 10 2 0 4 -4 4 -10z"/>
<path d="M1315 2370 c-3 -5 -1 -10 4 -10 6 0 11 5 11 10 0 6 -2 10 -4 10 -3 0
-8 -4 -11 -10z"/>
<path d="M1249 2243 c-13 -16 -12 -17 4 -4 9 7 17 15 17 17 0 8 -8 3 -21 -13z"/>
<path d="M2230 1769 c0 -5 5 -7 10 -4 6 3 10 8 10 11 0 2 -4 4 -10 4 -5 0 -10
-5 -10 -11z"/>
<path d="M900 831 c0 -6 4 -13 10 -16 6 -3 7 1 4 9 -7 18 -14 21 -14 7z"/>
<path d="M1402 1705 c-12 -7 -34 -11 -47 -9 -14 1 -23 -1 -20 -6 3 -4 -2 -11
-11 -14 -10 -4 -13 -2 -8 6 4 7 3 8 -4 4 -7 -4 -12 -13 -12 -21 0 -7 -13 -18
-30 -24 -16 -5 -30 -13 -30 -16 0 -3 5 -3 12 1 7 5 8 3 4 -5 -5 -7 -14 -10
-21 -7 -7 2 -12 -3 -11 -12 0 -10 -5 -16 -13 -14 -12 3 -12 0 -1 -12 7 -9 8
-16 2 -16 -5 0 -9 -8 -8 -17 0 -10 -4 -17 -9 -16 -6 1 -12 -7 -12 -18 -1 -11
2 -17 6 -15 4 3 8 -1 8 -9 0 -8 -4 -12 -9 -9 -4 3 -8 0 -8 -5 0 -6 5 -11 12
-11 6 0 3 -7 -8 -16 -10 -8 -14 -13 -9 -10 6 2 17 -4 24 -16 7 -11 8 -17 2
-13 -6 3 -11 -1 -11 -9 0 -9 5 -16 10 -16 6 0 10 -11 10 -23 0 -25 28 -57 48
-57 7 0 12 -7 12 -16 0 -8 4 -13 9 -9 5 3 12 -3 16 -14 4 -13 12 -17 27 -13
14 3 19 1 14 -6 -4 -7 1 -10 14 -7 11 2 20 0 20 -5 0 -4 7 -11 16 -14 12 -5
15 -2 10 11 -6 17 -5 17 8 1 15 -20 31 -25 20 -6 -5 7 -3 8 6 3 17 -10 60 -15
59 -7 -3 19 3 23 16 12 13 -11 14 -10 8 5 -5 14 -3 17 10 12 9 -3 17 -2 17 4
0 6 4 8 9 5 5 -3 11 1 15 9 3 8 12 15 21 15 8 0 15 7 15 16 0 8 4 13 9 10 12
-8 22 20 14 41 -4 11 -3 14 5 9 7 -4 12 -2 12 4 0 6 5 8 12 4 8 -5 9 -2 5 9
-4 10 -1 17 6 17 8 0 6 4 -3 10 -14 9 -7 15 15 10 6 -1 4 4 -2 11 -7 7 -13 16
-13 21 0 4 6 6 13 4 6 -1 9 -1 4 2 -4 2 -12 13 -19 25 -10 19 -9 20 3 10 12
-10 15 -8 15 7 0 10 -3 17 -7 14 -4 -2 -10 3 -13 12 -9 24 -7 31 4 14 5 -8 10
-10 10 -5 -1 6 -7 19 -15 29 -8 10 -11 24 -8 30 4 6 0 5 -9 -2 -13 -10 -15 -9
-11 12 4 17 0 25 -16 29 -12 3 -21 13 -21 22 0 9 -4 13 -10 10 -5 -3 -10 -2
-10 4 0 6 -15 14 -32 19 -18 5 -32 14 -30 21 2 8 -3 9 -16 2 -10 -5 -24 -6
-32 -1 -7 4 -20 6 -28 2 -10 -3 -13 -1 -8 6 8 14 8 14 -22 -3z m-168 -371 c3
-8 2 -12 -4 -9 -6 3 -10 10 -10 16 0 14 7 11 14 -7z"/>
<path d="M1416 1037 c3 -10 9 -15 12 -12 3 3 0 11 -7 18 -10 9 -11 8 -5 -6z"/>
<path d="M1576 1037 c3 -10 9 -15 12 -12 3 3 0 11 -7 18 -10 9 -11 8 -5 -6z"/>
<path d="M2519 847 c6 -8 7 -18 3 -22 -4 -5 -2 -5 5 -1 14 8 6 36 -9 36 -7 0
-6 -5 1 -13z"/>
<path d="M1415 700 c-3 -5 -1 -10 4 -10 6 0 11 5 11 10 0 6 -2 10 -4 10 -3 0
-8 -4 -11 -10z"/>
<path d="M190 2086 c0 -2 8 -10 18 -17 15 -13 16 -12 3 4 -13 16 -21 21 -21
13z"/>
<path d="M2499 1813 c-13 -16 -12 -17 4 -4 9 7 17 15 17 17 0 8 -8 3 -21 -13z"/>
<path d="M2335 1400 c3 -5 8 -10 11 -10 2 0 4 5 4 10 0 6 -5 10 -11 10 -5 0
-7 -4 -4 -10z"/>
<path d="M495 700 c-3 -5 -1 -10 4 -10 6 0 11 5 11 10 0 6 -2 10 -4 10 -3 0
-8 -4 -11 -10z"/>
<path d="M735 700 c-3 -5 -1 -10 4 -10 6 0 11 5 11 10 0 6 -2 10 -4 10 -3 0
-8 -4 -11 -10z"/>
<path d="M2415 700 c-3 -5 -1 -10 4 -10 6 0 11 5 11 10 0 6 -2 10 -4 10 -3 0
-8 -4 -11 -10z"/>
</g>
</svg>
